<svg width="16" height="16" viewBox="0 0 16 16" xmlns="http://www.w3.org/2000/svg"><path d="M7.844 11.844a4 4 0 1 1 0-8 4 4 0 0 1 0 8m6-4c0-.029-.004-.058-.004-.087l1.848-.341-.362-1.967-1.852.342a5.992 5.992 0 0 0-1.454-2.246l1.068-1.55L11.442.861l-1.069 1.55a5.95 5.95 0 0 0-2.529-.567c-.029 0-.058.004-.087.004L7.416 0 5.449.363l.341 1.851a5.996 5.996 0 0 0-2.245 1.454L1.995 2.6.861 4.246l1.55 1.069a5.95 5.95 0 0 0-.567 2.529c0 .029.004.058.004.087L0 8.272l.362 1.967 1.852-.342a5.992 5.992 0 0 0 1.454 2.246L2.6 13.693l1.646 1.134 1.069-1.55a5.95 5.95 0 0 0 2.529.567c.029 0 .058-.004.087-.004l.341 1.848 1.967-.363-.341-1.851a5.996 5.996 0 0 0 2.245-1.454l1.55 1.068 1.134-1.646-1.55-1.069a5.95 5.95 0 0 0 .567-2.529" fill="#000" fill-rule="evenodd"/></svg>