<svg clip-rule="evenodd" fill-rule="evenodd" image-rendering="optimizeQuality" shape-rendering="geometricPrecision" text-rendering="geometricPrecision" viewBox="0 0 512 512" xmlns="http://www.w3.org/2000/svg" xmlns:xodm="http://www.corel.com/coreldraw/odm/2003"><g id="Layer_x0020_1"><path d="m-5239.92 1594.94c.02 7.81 2.31 120.68 120.76 127.72 0 32.55.03 56.15.03 87.21-8.97.52-77.97-4.49-120.93-42.8l-.13 169.78c1.63 117.84-85.08 189.54-198.44 164.78-195.46-58.47-130.51-348.37 65.75-317.34 0 93.59.05-.03.05 93.59-81.07-11.93-108.19 55.51-86.65 103.81 19.61 43.96 100.34 53.5 128.49-8.53 3.19-12.14 4.79-25.98 4.79-41.52v-337.13z"/><g fill-rule="nonzero"><path d="m-4469.99 1933.14c-13.44 70.49-29.86 138.07-78.5 173.37-15.02-106.54 22.04-186.55 39.25-271.5-29.34-49.39 3.53-148.79 65.42-124.29 76.15 30.12-65.95 183.63 29.44 202.8 99.6 20.01 140.26-172.81 78.51-235.51-89.24-90.55-259.76-2.07-238.79 127.57 5.1 31.69 37.84 41.3 13.08 85.04-57.11-12.66-74.15-57.7-71.96-117.76 3.53-98.29 88.32-167.11 173.36-176.63 107.56-12.04 208.5 39.48 222.44 140.65 15.69 114.2-48.55 237.87-163.55 228.98-31.18-2.43-44.26-17.87-68.7-32.72z" fill="#d0272c"/><path d="m-3756.02 1594.51-33.39 89.04v356.14h122.38v66.82h66.81l66.75-66.82h100.14l133.56-133.51v-311.67zm44.49 44.49h367.26v244.88l-77.92 77.92h-122.4l-66.73 66.73v-66.73h-100.21zm122.42 222.65h44.52v-133.55h-44.52zm122.41 0h44.51v-133.55h-44.51z" fill="#5a3e85"/><path d="m-2698.74 1733.62c-11.72.21-21.62 10.19-21.41 21.58.21 11.81 9.93 21.04 21.98 20.9 12.08-.15 21.24-9.48 21.13-21.54-.1-11.83-9.77-21.16-21.7-20.94zm150.41 136.23c-9.29-.07-17.18 7.54-17.56 16.93-.4 10.03 7.4 18.28 17.33 18.3 9.61.03 17.2-7.23 17.55-16.8.37-10.05-7.43-18.36-17.32-18.43zm-92.53 18.41c.38-10.01-7.67-18.41-17.7-18.45-9.92-.04-18.24 8.47-17.89 18.33.32 9.43 8.26 17.05 17.77 17.06 9.49.01 17.45-7.4 17.82-16.94zm109.84 164.41c-14.63-1.53-30.01 6.91-45.31 8.48-46.63 4.77-88.4-8.23-122.85-40.08-65.51-60.59-56.15-153.5 19.64-203.15 67.36-44.13 166.15-29.42 213.64 31.81 41.45 53.43 36.58 124.36-14.02 169.25-23.61 20.95-13.71 27.63-7.57 51.97-13.6-6.06-28.68-16.73-43.53-18.28zm-302.83-319.04c-11.95-.36-21.78 8.78-22.13 20.56-.35 11.94 8.78 21.5 20.82 21.81 11.93.3 21.94-8.84 22.38-20.47.44-11.59-9.66-21.57-21.07-21.9zm72.22 213.69c-18.57-2.3-35.48-4.83-52.48-6.27-5.87-.49-12.84.21-17.82 3.02-16.51 9.32-32.34 19.84-51.1 31.56 3.44-15.57 5.67-29.2 9.62-42.32 2.9-9.63 1.55-15-7.33-21.28-115.1-81.26-78.79-230.75 49.97-272.81 100.32-32.78 226.22 24.88 236.57 135.64-96.71 5.05-176.11 70.06-167.43 172.46z" fill="#3caf41"/><path d="m-2014.21 1705.12c79.75 0 144.4 65.1 144.4 145.39 0 80.3-64.65 145.39-144.4 145.39s-144.4-65.09-144.4-145.39c0-80.29 64.65-145.39 144.4-145.39zm230.6 8.52c39.88 0 72.2 61.27 72.2 136.87.13 18.22-7.61 136.88-72.19 136.88-39.88 0-72.21-61.3-72.21-136.88s32.33-136.87 72.2-136.87zm111.61 14.25c14.02 0 25.39 54.9 25.39 122.62 0 67.7-11.37 122.62-25.39 122.62-14.03 0-25.39-54.9-25.39-122.62s11.36-122.62 25.39-122.62z" fill="#1e1b1e"/><path d="m-1229.55 1594.85c-28.14 0-51.13 22.99-51.13 51.13s22.99 51.13 51.13 51.13h51.14v-51.13c0-28.14-22.65-51.13-51.14-51.13zm-187.02 323.95c0 28.14 22.99 51.13 51.13 51.13s51.13-22.99 51.13-51.13v-51.13h-51.13c-28.48 0-51.13 22.99-51.13 51.13zm136.23 0v136.58c0 28.14 23 51.13 51.14 51.13s51.13-22.99 51.13-51.13v-136.58c0-28.14-22.99-51.13-51.13-51.13-28.49 0-51.14 22.99-51.14 51.13zm187.03 187.71c28.14 0 51.13-22.99 51.13-51.13s-22.99-51.13-51.13-51.13h-51.13v51.13c0 28.14 22.99 51.13 51.13 51.13zm136.24-136.58c28.14 0 51.13-22.99 51.13-51.13s-22.99-51.13-51.13-51.13h-136.24c-28.14 0-51.13 22.99-51.13 51.13s22.99 51.13 51.13 51.13zm51.13-187.71c0-28.14-22.99-51.13-51.13-51.13s-51.14 22.99-51.14 51.13v51.13h51.14c28.14.35 51.13-22.65 51.13-51.13zm-136.24 0v-136.58c0-28.14-22.99-51.13-51.13-51.13s-51.13 22.99-51.13 51.13v136.58c0 28.14 22.99 51.13 51.13 51.13 28.48.35 51.13-22.65 51.13-51.13zm-187.37-51.13h-135.89c-28.14 0-51.13 22.99-51.13 51.13s22.99 51.13 51.13 51.13h136.24c28.14 0 51.13-22.99 51.13-51.13-.34-28.14-22.99-51.13-51.48-51.13z" fill="#e01e5a"/><path d="m512 50.49-80.98 408.28s-11.32 28.31-42.47 14.72l-187.71-143.67c25.23-22.68 220.96-198.65 229.52-206.63 13.23-12.35 5.02-19.7-10.36-10.36l-289.11 183.6-111.54-37.55s-17.56-6.23-19.25-19.82c-1.7-13.59 19.82-20.95 19.82-20.95l454.71-178.38s37.37-16.42 37.37 10.76z" fill="#23b7ec"/></g></g></svg>